<svg xmlns="http://www.w3.org/2000/svg" viewBox="0 0 16 16">
  <defs>
    <linearGradient id="bg16" x1="2" y1="1.5" x2="14.5" y2="15">
      <stop offset="0" stop-color="#0f5fe8" />
      <stop offset="1" stop-color="#0a2342" />
    </linearGradient>
  </defs>
  <rect width="16" height="16" rx="4" fill="url(#bg16)" />
  <path d="M5 3.5h6a1.5 1.5 0 0 1 1.5 1.5v5.5H6.4A1.4 1.4 0 0 1 5 9.1Z" fill="#5fa6ff" opacity=".42" />
  <path d="M3.5 5.5A1.5 1.5 0 0 1 5 4h6A1.5 1.5 0 0 1 12.5 5.5V11A1.5 1.5 0 0 1 11 12.5H5A1.5 1.5 0 0 1 3.5 11Z" fill="#f8fbff" />
  <path d="M4.8 6.2h6.4v1.1H4.8Zm0 2.1h4.7v2.2H4.8Z" fill="#0f5fe8" />
  <circle cx="10.8" cy="10.8" r="1.1" fill="#ffb84d" />
</svg>
