<svg xmlns="http://www.w3.org/2000/svg" viewBox="0 0 32 32">
  <defs>
    <linearGradient id="bg32" x1="4" y1="3" x2="29" y2="30">
      <stop offset="0" stop-color="#0f5fe8" />
      <stop offset="1" stop-color="#0a2342" />
    </linearGradient>
  </defs>
  <rect width="32" height="32" rx="8" fill="url(#bg32)" />
  <path d="M11 7h12a3 3 0 0 1 3 3v11H13.8a2.8 2.8 0 0 1-2.8-2.8Z" fill="#5fa6ff" opacity=".38" />
  <path d="M6.5 11A2.5 2.5 0 0 1 9 8.5h12a2.5 2.5 0 0 1 2.5 2.5v12A2.5 2.5 0 0 1 21 25.5H9A2.5 2.5 0 0 1 6.5 23Z" fill="#f8fbff" />
  <path d="M9.3 12h13.4v2.1H9.3Zm0 4.2H19v4.8H9.3Z" fill="#0f5fe8" />
  <circle cx="22" cy="21.5" r="2.2" fill="#ffb84d" />
</svg>
