<svg xmlns="http://www.w3.org/2000/svg" viewBox="0 0 48 48">
  <defs>
    <linearGradient id="bg48" x1="6" y1="4.5" x2="43.5" y2="45">
      <stop offset="0" stop-color="#0f5fe8" />
      <stop offset="1" stop-color="#0a2342" />
    </linearGradient>
  </defs>
  <rect width="48" height="48" rx="12" fill="url(#bg48)" />
  <path d="M17 11h18a4 4 0 0 1 4 4v16H21.2A4.2 4.2 0 0 1 17 26.8Z" fill="#5fa6ff" opacity=".36" />
  <path d="M10.5 16A3.5 3.5 0 0 1 14 12.5h18a3.5 3.5 0 0 1 3.5 3.5v18a3.5 3.5 0 0 1-3.5 3.5H14a3.5 3.5 0 0 1-3.5-3.5Z" fill="#f8fbff" />
  <path d="M14.2 17.5h17.6v3H14.2Zm0 5.8h12.8v7.4H14.2Z" fill="#0f5fe8" />
  <circle cx="33" cy="32.5" r="3.4" fill="#ffb84d" />
</svg>
